<svg width="786" height="61" viewBox="0 0 786 161" fill="none" xmlns="http://www.w3.org/2000/svg">
<g clip-path="url(#clip0)">
<g clip-path="url(#clip1)">
<path d="M741.854 51.9268H642.323C639.865 51.9268 637.874 54.1225 637.874 56.8311V70.0053H746.303V56.8311C746.303 54.1227 744.311 51.9268 741.854 51.9268Z" fill="white"/>
<path d="M705.719 24.6903L696.706 125.278C696.479 127.805 694.438 129.651 692.146 129.401L646.475 124.428C644.183 124.179 642.508 121.928 642.735 119.401L651.748 18.8133C651.975 16.2864 654.017 14.4404 656.309 14.6901L701.979 19.6634C704.271 19.9128 705.946 22.1634 705.719 24.6903Z" fill="#02D15F"/>
<path d="M701.979 19.6631L656.309 14.6898C654.017 14.4402 651.975 16.2862 651.748 18.813L650.94 27.8375C651.625 27.4539 652.412 27.2704 653.234 27.3598L698.904 32.3331C701.196 32.5828 702.871 34.8334 702.644 37.3603L694.439 128.924C695.666 128.237 696.561 126.9 696.706 125.279L705.719 24.6906C705.946 22.1634 704.271 19.9128 701.979 19.6631Z" fill="#02D15F"/>
<path d="M656.589 33.0762L650.014 106.458C649.92 107.508 650.368 108.532 651.181 109.09C653.42 110.629 655.154 112.938 656.106 115.648C656.449 116.623 657.267 117.294 658.21 117.397L681.885 119.975C682.828 120.078 683.75 119.595 684.259 118.714C685.674 116.261 687.784 114.371 690.253 113.345C691.149 112.972 691.771 112.065 691.865 111.015L698.44 37.6336C698.534 36.5833 698.086 35.5596 697.273 35.0012C695.034 33.4623 693.3 31.1537 692.347 28.4431C692.005 27.4691 691.187 26.797 690.244 26.6942L666.568 24.1162C665.625 24.0134 664.704 24.496 664.195 25.3776C662.78 27.83 660.67 29.7203 658.201 30.7465C657.305 31.1189 656.683 32.0259 656.589 33.0762Z" fill="#02D15F"/>
<path d="M697.274 35.0012C695.035 33.4623 693.301 31.1537 692.348 28.4431C692.005 27.4688 691.187 26.797 690.244 26.6942L666.569 24.1162C665.626 24.0134 664.704 24.496 664.195 25.3776C662.78 27.83 660.67 29.7203 658.201 30.7465C657.305 31.1189 656.683 32.0259 656.589 33.0762L656.339 35.8696L687.016 39.1058C687.959 39.2086 688.777 39.8804 689.119 40.8547C690.072 43.565 691.806 45.8739 694.045 47.4128C694.858 47.9712 695.306 48.9949 695.212 50.0452L689.509 113.689C689.754 113.566 690.001 113.45 690.253 113.345C691.149 112.973 691.771 112.066 691.865 111.015L698.44 37.6339C698.535 36.5833 698.086 35.5596 697.274 35.0012Z" fill="#02D15F"/>
<path d="M744.443 39.6764L692.807 123.203C691.51 125.301 688.916 125.843 687.012 124.413L649.089 95.9233C647.185 94.4935 646.694 91.6334 647.991 89.5353L699.627 6.00888C700.924 3.9108 703.518 3.36884 705.422 4.79865L743.345 33.2884C745.249 34.7182 745.74 37.5781 744.443 39.6764Z" fill="#02D15F"/>
<path d="M743.345 33.2884L705.421 4.79872C703.518 3.36892 700.924 3.9106 699.627 6.00896L695.21 13.1536C695.593 13.2857 695.966 13.4804 696.315 13.7426L734.239 42.2323C736.142 43.6621 736.634 46.5223 735.337 48.6204L688.118 125.002C689.824 125.591 691.748 124.917 692.808 123.203L744.443 39.6765C745.74 37.5781 745.249 34.7182 743.345 33.2884Z" fill="#02D15F"/>
<path d="M697.675 21.085L660.006 82.0197C659.467 82.8919 659.415 84.0273 659.886 84.9466C661.182 87.48 661.7 90.4221 661.358 93.3047C661.236 94.3405 661.662 95.3626 662.445 95.9508L682.104 110.72C682.887 111.308 683.906 111.371 684.736 110.866C687.044 109.461 689.718 108.917 692.331 109.32C693.279 109.467 694.219 108.999 694.758 108.127L732.428 47.1922C732.967 46.32 733.018 45.1846 732.548 44.2654C731.251 41.732 730.733 38.7898 731.075 35.9075C731.198 34.8717 730.772 33.8496 729.989 33.2614L710.329 18.4922C709.546 17.9038 708.528 17.8406 707.698 18.3457C705.389 19.7506 702.716 20.295 700.103 19.8917C699.155 19.7448 698.214 20.2127 697.675 21.085Z" fill="#02D15F"/>
<path d="M732.548 44.2653C731.251 41.7319 730.733 38.7897 731.075 35.9074C731.198 34.8716 730.772 33.8495 729.989 33.261L710.329 18.4921C709.546 17.904 708.528 17.8405 707.698 18.3456C705.39 19.7505 702.716 20.2949 700.103 19.8913C699.154 19.745 698.215 20.2126 697.675 21.0849L696.105 23.6243L720.675 41.8817C721.459 42.4701 721.885 43.492 721.762 44.5278C721.42 47.4101 721.938 50.3522 723.234 52.8856C723.705 53.8049 723.653 54.9405 723.114 55.8125L690.107 109.206C690.847 109.171 691.591 109.206 692.331 109.32C693.28 109.467 694.219 108.999 694.759 108.127L732.428 47.1921C732.967 46.3199 733.018 45.1846 732.548 44.2653Z" fill="#02D15F"/>
<path d="M701.986 73.8331C709.437 73.8331 715.477 67.1746 715.477 58.9609C715.477 50.7472 709.437 44.0886 701.986 44.0886C694.535 44.0886 688.495 50.7472 688.495 58.9609C688.495 67.1746 694.535 73.8331 701.986 73.8331Z" fill="#02D15F"/>
<path d="M743.395 144H639.461C635.917 144 633.044 140.833 633.044 136.927V66.9285C633.044 63.0222 635.917 59.8552 639.461 59.8552H743.395C746.939 59.8552 749.812 63.0219 749.812 66.9285V136.927C749.812 140.833 746.939 144 743.395 144Z" fill="white"/>
<path d="M743.396 59.8552H731.722C735.266 59.8552 738.139 63.0222 738.139 66.9285V136.927C738.139 140.833 735.266 144 731.722 144H743.396C746.939 144 749.812 140.833 749.812 136.927V66.9285C749.812 63.0222 746.939 59.8552 743.396 59.8552Z" fill="white"/>
<path d="M753.631 88.407H730.238C723.464 88.407 717.973 94.4603 717.973 101.928C717.973 109.395 723.464 115.448 730.238 115.448H753.631C754.915 115.448 755.956 114.301 755.956 112.886V90.9696C755.956 89.5546 754.915 88.407 753.631 88.407Z" fill="white"/>
<path d="M753.631 88.407H741.917C743.201 88.407 744.241 89.5543 744.241 90.9696V109.43C744.241 110.939 743.131 112.163 741.762 112.163H730.238C723.969 112.163 718.802 106.977 718.066 100.285C718.007 100.824 717.973 101.371 717.973 101.927C717.973 109.395 723.464 115.448 730.238 115.448H741.916H753.631C754.915 115.448 755.956 114.301 755.956 112.885V109.6V90.9696C755.956 89.5546 754.915 88.407 753.631 88.407Z" fill="#FFF8F7"/>
<path d="M743.395 59.8552H639.461C635.917 59.8552 633.044 63.0222 633.044 66.9285V74.6799H749.812V66.9285C749.812 63.0222 746.939 59.8552 743.395 59.8552Z" fill="white"/>
<path d="M748.716 62.9738C748.485 62.5976 748.223 62.247 747.933 61.9271C747.929 61.9233 747.926 61.92 747.922 61.9162C747.635 61.6006 747.32 61.3146 746.983 61.0633C746.897 60.9999 746.811 60.9383 746.722 60.8793C746.591 60.7915 746.456 60.7103 746.319 60.6326C746.23 60.5823 746.14 60.5345 746.049 60.4885C745.24 60.0828 744.342 59.855 743.395 59.855H731.723C735.266 59.8553 738.139 63.0219 738.139 66.9283V74.6794H749.812V66.9283C749.812 65.7074 749.531 64.5589 749.037 63.5568C748.939 63.3566 748.831 63.1619 748.716 62.9738Z" fill="#FFF8F7"/>
<path d="M639.461 144H743.395C746.939 144 749.812 140.833 749.812 136.927V129.175H633.044V136.927C633.044 140.833 635.917 144 639.461 144Z" fill="white"/>
<path d="M738.139 129.175V136.927C738.139 136.931 738.139 136.935 738.139 136.939C738.138 137.592 737.642 138.113 737.049 138.113H639.461C635.917 138.113 633.044 134.946 633.044 131.04V136.926C633.044 140.833 635.917 144 639.461 144H731.723H743.396C743.522 144 743.648 143.995 743.773 143.987C743.812 143.984 743.85 143.98 743.889 143.977C743.976 143.97 744.063 143.961 744.149 143.95C744.191 143.944 744.234 143.938 744.277 143.932C744.362 143.919 744.447 143.904 744.532 143.887C744.569 143.88 744.607 143.873 744.644 143.865C744.763 143.839 744.882 143.811 744.999 143.777C744.999 143.777 744.999 143.777 744.999 143.777C745.05 143.763 745.101 143.746 745.151 143.73C745.405 143.65 745.653 143.556 745.893 143.444C745.989 143.4 746.084 143.352 746.178 143.303C746.271 143.253 746.363 143.201 746.454 143.147L746.454 143.146C746.636 143.037 746.812 142.919 746.983 142.792L746.983 142.792L746.983 142.792C747.129 142.684 747.269 142.568 747.405 142.447C747.411 142.442 747.418 142.436 747.424 142.43C747.562 142.307 747.695 142.178 747.824 142.043C747.975 141.884 748.119 141.717 748.255 141.542V141.542C748.469 141.269 748.664 140.978 748.838 140.672C748.843 140.663 748.848 140.655 748.852 140.647C748.916 140.533 748.978 140.418 749.037 140.3C749.037 140.299 749.037 140.299 749.037 140.298V140.298C749.192 139.983 749.326 139.654 749.437 139.312C749.449 139.273 749.461 139.234 749.473 139.195C749.5 139.107 749.525 139.019 749.549 138.931C749.561 138.886 749.573 138.84 749.584 138.795C749.606 138.706 749.626 138.616 749.645 138.525C749.654 138.484 749.663 138.443 749.671 138.401C749.696 138.271 749.719 138.139 749.738 138.006C749.738 138.005 749.738 138.005 749.738 138.004C749.738 138.004 749.738 138.003 749.738 138.003C749.759 137.848 749.774 137.69 749.787 137.531C749.79 137.491 749.792 137.451 749.795 137.411C749.805 137.251 749.812 137.09 749.812 136.927V131.04V129.176L738.139 129.175Z" fill="#FFF8F7"/>
<path d="M730.675 108.207C733.82 108.207 736.37 105.396 736.37 101.929C736.37 98.4618 733.82 95.6511 730.675 95.6511C727.53 95.6511 724.98 98.4618 724.98 101.929C724.98 105.396 727.53 108.207 730.675 108.207Z" fill="white"/>
</g>
<path d="M41.77 41.275C43.2867 41.015 44.8683 40.8633 46.515 40.82C48.205 40.7333 49.5483 40.69 50.545 40.69C51.6283 40.69 52.9067 40.7333 54.38 40.82C55.8967 40.8633 57.37 41.015 58.8 41.275L71.735 83.07C72.0817 84.0667 72.515 85.5183 73.035 87.425C73.555 89.3317 74.075 91.3683 74.595 93.535C75.1583 95.6583 75.6567 97.63 76.09 99.45C76.5233 101.227 76.805 102.505 76.935 103.285H77.65C77.78 102.505 78.0617 101.227 78.495 99.45C78.9283 97.63 79.405 95.6583 79.925 93.535C80.4883 91.3683 81.03 89.3317 81.55 87.425C82.07 85.5183 82.5033 84.0667 82.85 83.07L95.72 41.275C97.3233 41.015 98.84 40.8633 100.27 40.82C101.7 40.7333 102.935 40.69 103.975 40.69C104.972 40.69 106.293 40.7333 107.94 40.82C109.587 40.8633 111.212 41.015 112.815 41.275L119.705 129.805C118.752 130.065 117.668 130.26 116.455 130.39C115.242 130.52 114.115 130.585 113.075 130.585C110.952 130.585 109.002 130.433 107.225 130.13L104.04 81.185C103.91 78.8883 103.78 76.2017 103.65 73.125C103.52 70.0483 103.39 66.9283 103.26 63.765C103.13 60.6017 103.043 57.7417 103 55.185H102.285L83.825 116.35C82.8283 116.523 81.7233 116.653 80.51 116.74C79.2967 116.827 78.1917 116.87 77.195 116.87C76.1983 116.87 75.0933 116.827 73.88 116.74C72.71 116.653 71.67 116.523 70.76 116.35L52.3 55.185H51.585C51.4983 57.7417 51.39 60.6017 51.26 63.765C51.1733 66.9283 51.065 70.0483 50.935 73.125C50.805 76.2017 50.675 78.8883 50.545 81.185L47.295 130.13C45.5183 130.433 43.525 130.585 41.315 130.585C40.275 130.585 39.1483 130.52 37.935 130.39C36.765 130.26 35.7467 130.065 34.88 129.805L41.77 41.275ZM176.604 59.215C177.558 58.955 178.533 58.7817 179.529 58.695C180.569 58.6083 181.523 58.565 182.389 58.565C184.773 58.565 186.788 58.8467 188.434 59.41L188.954 60.19L166.594 108.875V130C165.598 130.173 164.558 130.303 163.474 130.39C162.391 130.477 161.329 130.52 160.289 130.52C159.379 130.52 158.318 130.477 157.104 130.39C155.891 130.303 154.829 130.173 153.919 130V108.29L131.559 60.19C134.419 58.8467 137.149 58.175 139.749 58.175C142.956 58.175 145.274 59.9083 146.704 63.375L155.674 83.33C156.671 85.7567 157.581 88.14 158.404 90.48C159.271 92.7767 159.986 94.9433 160.549 96.98H161.199C161.893 94.77 162.629 92.4733 163.409 90.09C164.233 87.7067 165.208 85.1717 166.334 82.485L176.604 59.215ZM194.834 41.86C196.09 41.2967 197.304 40.9067 198.474 40.69C199.687 40.43 200.879 40.3 202.049 40.3C204.172 40.3 205.732 40.82 206.729 41.86C207.769 42.9 208.527 44.72 209.004 47.32L217.454 92.69C217.844 94.8567 218.299 97.5217 218.819 100.685C219.382 103.805 219.924 106.925 220.444 110.045C220.964 113.165 221.375 115.765 221.679 117.845C221.809 118.538 221.939 118.95 222.069 119.08C222.199 119.21 222.459 119.275 222.849 119.275L237.409 43.095C238.709 42.8783 240.139 42.7267 241.699 42.64C243.302 42.5533 244.71 42.51 245.924 42.51C247.137 42.51 248.567 42.5533 250.214 42.64C251.86 42.7267 253.204 42.8783 254.244 43.095L267.634 117.845C267.764 118.495 267.894 118.907 268.024 119.08C268.197 119.21 268.457 119.275 268.804 119.275C269.194 116.588 269.671 113.598 270.234 110.305C270.797 107.012 271.36 103.805 271.924 100.685C272.53 97.5217 273.05 94.835 273.484 92.625L283.819 41.21C284.729 41.0367 285.704 40.9067 286.744 40.82C287.784 40.7333 288.759 40.69 289.669 40.69C290.709 40.69 291.77 40.755 292.854 40.885C293.98 41.015 294.999 41.21 295.909 41.47L296.559 42.315L277.774 129.87C276.214 130.13 274.285 130.303 271.989 130.39C269.692 130.52 267.72 130.585 266.074 130.585C264.124 130.585 262.412 130.217 260.939 129.48C259.509 128.743 258.556 126.967 258.079 124.15L251.579 88.53C250.842 84.37 249.975 79.3867 248.979 73.58C247.982 67.73 247.05 61.945 246.184 56.225H245.274C244.32 61.945 243.324 67.7083 242.284 73.515C241.244 79.2783 240.29 84.2833 239.424 88.53L231.169 129.935C229.565 130.152 227.702 130.303 225.579 130.39C223.499 130.52 221.635 130.585 219.989 130.585C217.952 130.585 216.132 130.217 214.529 129.48C212.925 128.7 211.842 126.902 211.279 124.085L194.834 41.86ZM322.19 113.88C321.713 113.88 320.63 113.858 318.94 113.815C317.293 113.772 315.972 113.75 314.975 113.75L309.125 130.065C307.608 130.455 305.788 130.65 303.665 130.65C301.152 130.65 299.158 130.347 297.685 129.74L297.295 129.09L323.23 59.15C324.27 58.9767 325.527 58.8467 327 58.76C328.473 58.63 329.752 58.565 330.835 58.565C331.832 58.565 333.002 58.63 334.345 58.76C335.732 58.8467 336.945 58.9767 337.985 59.15L363.79 129.415C362.793 129.892 361.602 130.26 360.215 130.52C358.872 130.78 357.615 130.91 356.445 130.91C354.668 130.91 353.173 130.542 351.96 129.805C350.79 129.068 349.772 127.443 348.905 124.93L344.94 113.75C344.073 113.75 342.838 113.772 341.235 113.815C339.675 113.858 338.635 113.88 338.115 113.88H322.19ZM324.4 87.295L318.615 103.415C319.568 103.415 320.695 103.393 321.995 103.35C323.338 103.307 324.227 103.285 324.66 103.285H335.97C336.403 103.285 337.183 103.307 338.31 103.35C339.437 103.393 340.433 103.415 341.3 103.415L336.555 90.025C335.602 87.2517 334.518 83.9367 333.305 80.08C332.135 76.2233 331.117 72.8433 330.25 69.94H329.665C328.885 72.7133 327.997 75.7683 327 79.105C326.003 82.3983 325.137 85.1283 324.4 87.295ZM422.685 119.21C422.599 123.283 421.927 126.122 420.67 127.725C419.414 129.328 417.247 130.13 414.17 130.13H384.075C381.865 130.13 380.067 129.458 378.68 128.115C377.337 126.728 376.665 124.8 376.665 122.33V59.41L377.38 58.695H382.385C385.029 58.695 386.87 59.3233 387.91 60.58C388.95 61.8367 389.47 63.895 389.47 66.755V119.73C393.24 119.383 396.837 119.21 400.26 119.21H422.685ZM483.115 119.21C483.028 123.283 482.357 126.122 481.1 127.725C479.843 129.328 477.677 130.13 474.6 130.13H444.505C442.295 130.13 440.497 129.458 439.11 128.115C437.767 126.728 437.095 124.8 437.095 122.33V59.41L437.81 58.695H442.815C445.458 58.695 447.3 59.3233 448.34 60.58C449.38 61.8367 449.9 63.895 449.9 66.755V119.73C453.67 119.383 457.267 119.21 460.69 119.21H483.115ZM546.925 119.405C546.925 123.435 546.296 126.23 545.04 127.79C543.783 129.307 541.681 130.065 538.735 130.065H505C502.746 130.065 500.948 129.393 499.605 128.05C498.261 126.663 497.59 124.778 497.59 122.395V59.865L498.305 59.15H544.845C545.018 60.06 545.126 60.9483 545.17 61.815C545.213 62.6817 545.235 63.4833 545.235 64.22C545.235 64.9133 545.148 65.7583 544.975 66.755C544.845 67.7517 544.606 68.7483 544.26 69.745H517.545C516.678 69.745 515.573 69.745 514.23 69.745C512.886 69.7017 511.521 69.68 510.135 69.68C510.135 70.6333 510.156 71.6517 510.2 72.735C510.243 73.8183 510.265 75.01 510.265 76.31V88.92C511.608 88.8767 512.93 88.855 514.23 88.855C515.573 88.855 516.678 88.855 517.545 88.855H538.41C538.713 89.6783 538.886 90.5883 538.93 91.585C539.016 92.5383 539.06 93.34 539.06 93.99C539.06 94.7267 539.016 95.5933 538.93 96.59C538.886 97.5433 538.713 98.4317 538.41 99.255H517.545C516.678 99.255 515.573 99.255 514.23 99.255C512.93 99.2117 511.608 99.19 510.265 99.19V114.075C510.265 115.115 510.243 116.112 510.2 117.065C510.156 118.018 510.135 118.885 510.135 119.665C511.261 119.578 512.41 119.513 513.58 119.47C514.793 119.427 516.223 119.405 517.87 119.405H546.925ZM574.847 77.35C574.847 75.9633 574.869 74.7067 574.912 73.58C574.956 72.41 574.977 71.0883 574.977 69.615C574.154 69.615 573.006 69.6367 571.532 69.68C570.102 69.7233 568.976 69.745 568.152 69.745H554.307C554.134 68.835 554.004 67.925 553.917 67.015C553.831 66.105 553.787 65.2817 553.787 64.545C553.787 63.765 553.831 62.8983 553.917 61.945C554.004 60.9917 554.134 60.06 554.307 59.15H607.802C608.019 59.8867 608.192 60.7317 608.322 61.685C608.452 62.595 608.517 63.375 608.517 64.025C608.517 65.8883 608.019 67.3183 607.022 68.315C606.069 69.2683 604.271 69.745 601.627 69.745H594.217C593.437 69.745 592.311 69.7233 590.837 69.68C589.407 69.6367 588.302 69.615 587.522 69.615C587.522 71.0883 587.544 72.41 587.587 73.58C587.631 74.7067 587.652 75.9633 587.652 77.35V130C586.829 130.173 585.811 130.303 584.597 130.39C583.384 130.477 582.279 130.52 581.282 130.52C580.329 130.52 579.246 130.477 578.032 130.39C576.819 130.303 575.757 130.173 574.847 130V77.35Z" fill="white"/>
</g>
<defs>
<clipPath id="clip0">
<rect width="786" height="161" fill="white"/>
</clipPath>
<clipPath id="clip1">
<rect width="127" height="140" fill="white" transform="translate(631 4)"/>
</clipPath>
</defs>
</svg>
